<?xml version="1.0" encoding="UTF-8"?>
<svg id="Layer_2" data-name="Layer 2" xmlns="http://www.w3.org/2000/svg" viewBox="0 0 166.48 63.58">
  <defs>
    <style>
      .cls-1 {
        fill: #00bb59;
      }
    </style>
  </defs>
  <g id="Layer_1-2" data-name="Layer 1">
    <g>
      <g>
        <path class="cls-1" d="M43.65,19.79h15.15v2.41h-12.61v8.56h11.98v2.42h-11.98v11.07h-2.54v-24.46Z"/>
        <path class="cls-1" d="M63.13,19.79h2.54v24.46h-2.54v-24.46Z"/>
        <path class="cls-1" d="M70.06,37.61l2.35-.85c1.04,3.86,3.83,5.68,6.93,5.68,2.67,0,5.65-1.32,5.65-4.55,0-3.04-2.73-3.7-5.08-4.42l-2.26-.72c-2.42-.75-6.71-2.29-6.71-6.84s3.95-6.62,8-6.62,7.09,2.16,8.12,5.83l-2.29.94c-.88-2.7-3.01-4.45-6.05-4.45-2.85,0-5.11,1.6-5.11,4.08,0,3.1,3.45,4.2,5.05,4.7l2.42.78c2.7.88,6.65,1.91,6.65,6.37s-3.8,7.24-8.41,7.24c-3.76,0-7.84-1.88-9.25-7.18Z"/>
        <path class="cls-1" d="M90.76,32.06c0-7.37,5.49-12.76,12.29-12.76s12.26,5.55,12.26,12.76-5.46,12.73-12.29,12.73-12.26-5.33-12.26-12.73ZM112.59,32.06c0-5.99-4.33-10.38-9.5-10.38s-9.63,4.36-9.63,10.38,4.42,10.35,9.63,10.35,9.5-4.36,9.5-10.35Z"/>
        <path class="cls-1" d="M120.15,19.79h8.69c4.01,0,8.06,2.35,8.06,7.34,0,4.26-2.67,6.93-6.21,7.34v.03c2.16,3.26,4.36,6.49,6.52,9.75h-2.85l-6.43-9.63h-5.24v9.63h-2.54v-24.46ZM128.56,32.37c3.32,0,5.68-1.73,5.68-5.11s-2.54-5.17-5.86-5.17h-5.68v10.29h5.86Z"/>
        <path class="cls-1" d="M148.94,19.79h2.79l9.85,24.46h-2.7c-1.13-2.79-2.26-5.55-3.36-8.28h-10.48c-1.1,2.73-2.16,5.49-3.29,8.28h-2.67l9.85-24.46ZM154.59,33.56c-1.5-3.73-3.04-7.68-4.23-10.82h-.06c-.85,2.16-2.6,6.55-4.3,10.82h8.59Z"/>
      </g>
      <g>
        <path class="cls-1" d="M162.82,26.6c-2.01,0-3.65-1.64-3.65-3.65s1.64-3.65,3.65-3.65,3.65,1.64,3.65,3.65-1.64,3.65-3.65,3.65ZM162.82,19.93c-1.66,0-3.02,1.35-3.02,3.02s1.35,3.02,3.02,3.02,3.02-1.35,3.02-3.02-1.35-3.02-3.02-3.02Z"/>
        <path class="cls-1" d="M161.57,21.25h1.49c.49,0,1.36.17,1.36,1.06,0,.62-.45.94-.97,1.02h0c.35.43.7.86,1.04,1.29h-.64l-1.01-1.24h-.69v1.24h-.57v-3.36ZM162.97,22.89c.44,0,.85-.14.85-.57s-.43-.58-.86-.58h-.82v1.15h.83Z"/>
      </g>
      <g>
        <path class="cls-1" d="M23.31,0C16.82,13.24-1.07,9.87,1.23,29.1c0,0,4.16-7.61,11.85-10.7,0,0-9.98,7.11-11.42,16.01,5.92-6.45,13.38-7.18,19.43-11.69,6.82-5.49,6.07-15.69,2.22-22.72Z"/>
        <path class="cls-1" d="M24.76,21.32c-5.26,8.85-17.45,6.49-23.3,17.56-5.53,11.86,5.65,23.03,17.03,24.7-6.89-5.56-11.7-18.34-1.83-23.46,8.85-4.18,10.15-9.76,8.1-18.8Z"/>
      </g>
    </g>
  </g>
</svg>